<svg xmlns="http://www.w3.org/2000/svg" viewBox="0 0 278.04 340.13"><title>Wallet with banknotes</title><g id="Layer_2" data-name="Layer 2"><g id="Слой_1" data-name="Слой 1"><g id="Wallet_with_banknotes" data-name="Wallet with banknotes"><path d="M140.24,2.13a8,8,0,0,1,9.8,5.7l55.7,207.9a8,8,0,0,1-5.7,9.8l-29.3,7.8-18.5,5-18.5,4.9L67.54,261a8,8,0,0,1-9.8-5.7L2,47.43a8,8,0,0,1,5.7-9.8Z" fill="#fff"/><path d="M65.54,263.33a10.14,10.14,0,0,1-9.7-7.4L13,96.13a1.86,1.86,0,0,1,1.4-2.4,1.86,1.86,0,0,1,2.4,1.4l42.8,159.8a6,6,0,0,0,7.3,4.2l66.2-17.7a2,2,0,0,1,1,3.8L67.94,263A8.75,8.75,0,0,1,65.54,263.33Zm105.3-27.9a1.93,1.93,0,0,1-1.9-1.5,1.86,1.86,0,0,1,1.4-2.4l29.3-7.8a5.92,5.92,0,0,0,3.6-2.8,6.13,6.13,0,0,0,.6-4.6L148.14,8.43a6,6,0,0,0-7.3-4.2L8.34,39.73a5.92,5.92,0,0,0-3.6,2.8,6.13,6.13,0,0,0-.6,4.6l5.4,20.2a1.86,1.86,0,0,1-1.4,2.4,1.86,1.86,0,0,1-2.4-1.4L.34,48.13a10.06,10.06,0,0,1,7.1-12.3L139.94.33a10,10,0,0,1,12.2,7.1l55.7,207.9a10.06,10.06,0,0,1-7.1,12.3l-29.3,7.8C171.14,235.33,171,235.43,170.84,235.43Z" fill="#4d4d4d"/><path d="M146.84,13.43l53.4,199.1a8,8,0,0,1-5.7,9.8l-123.7,33.1a8,8,0,0,1-9.8-5.7L7.64,50.63a8,8,0,0,1,5.7-9.8L137,7.73A8,8,0,0,1,146.84,13.43Z" fill="#65897a"/><path d="M138.24,31.23a11.18,11.18,0,0,1-13.8-7.6l-93,24.9c1.6,5.8-2.1,11.8-8.2,13.5l45.6,170.1a11.18,11.18,0,0,1,13.8,7.6l93-24.9c-1.6-5.8,2.1-11.8,8.2-13.4Z" fill="#fff"/><path d="M82.64,241.73a1.93,1.93,0,0,1-1-.3,1.78,1.78,0,0,1-.9-1.2,8.21,8.21,0,0,0-4.1-5.2,9.3,9.3,0,0,0-7.3-.9,1.94,1.94,0,0,1-1.5-.2,1.78,1.78,0,0,1-.9-1.2l-22.8-85.1a2,2,0,0,1,3.8-1l22.3,83.3a12.69,12.69,0,0,1,8.3,1.7,12.9,12.9,0,0,1,5.3,5.8l89.5-24a12,12,0,0,1,1.7-7.6,13.42,13.42,0,0,1,6.4-5.6l-1.2-4.5a2,2,0,0,1,3.8-1l1.7,6.3a1.94,1.94,0,0,1-.2,1.5,1.78,1.78,0,0,1-1.2.9,9.29,9.29,0,0,0-5.8,4.4,8.51,8.51,0,0,0-.9,6.6,2,2,0,0,1-1.4,2.5l-93,24.9A1.27,1.27,0,0,0,82.64,241.73Zm85.9-95.5a1.93,1.93,0,0,1-1.9-1.5l-29.8-111.1a13.49,13.49,0,0,1-8.1-1.6,12.55,12.55,0,0,1-5.5-5.9l-89.5,24a12.35,12.35,0,0,1-1.8,7.9,13.55,13.55,0,0,1-6.2,5.4l10.9,40.7a2,2,0,1,1-3.8,1l-11.4-42.5a1.94,1.94,0,0,1,.2-1.5,1.78,1.78,0,0,1,1.2-.9,9.21,9.21,0,0,0,5.7-4.3,8.43,8.43,0,0,0,1-6.7,1.86,1.86,0,0,1,1.4-2.4l93-24.9a1.86,1.86,0,0,1,2.4,1.4,8.3,8.3,0,0,0,4.2,5.3,9.27,9.27,0,0,0,7.1.8,1.94,1.94,0,0,1,1.5.2,1.78,1.78,0,0,1,.9,1.2l30.3,112.9a1.86,1.86,0,0,1-1.4,2.4C168.84,146.13,168.74,146.23,168.54,146.23Z" fill="#90ab6d"/><path d="M135.44,35.43a10.53,10.53,0,0,1-12.9-7.4L36,51.23a10.64,10.64,0,0,1-7.5,12.9l43.8,163.6a10.53,10.53,0,0,1,12.9,7.4l86.5-23.2a10.64,10.64,0,0,1,7.5-12.9Z" fill="#90ab6d"/><circle cx="103.94" cy="131.83" r="44" fill="#fff"/><circle cx="103.89" cy="131.76" r="40.2" transform="translate(-30.56 31.38) rotate(-15)" fill="#e9da8c"/><path d="M132.74,124.93a2.23,2.23,0,0,0-2.8-1.6l-4.6,1.3a2.23,2.23,0,0,0-1.6,2.8h0a2.31,2.31,0,0,0,2.8,1.6l4.6-1.3a2.36,2.36,0,0,0,1.6-2.8ZM86,137.43a2.23,2.23,0,0,0-2.8-1.6l-5.3,1.4a2.23,2.23,0,0,0-1.6,2.8h0a2.23,2.23,0,0,0,2.8,1.6l5.3-1.4a2.31,2.31,0,0,0,1.6-2.8Zm32.7-1.1a2.78,2.78,0,0,0,.2,4.1h0a2.33,2.33,0,0,0,3.2,0A15.45,15.45,0,0,0,124,138a13.38,13.38,0,0,0,2.3-5.3,12.72,12.72,0,0,0-.2-6.4,13,13,0,0,0-3.1-5.8,11.76,11.76,0,0,0-4.9-3.4,8.93,8.93,0,0,0-5.6-.2,11,11,0,0,0-4.7,2.4,13.49,13.49,0,0,0-2.8,3.6,21.19,21.19,0,0,0-1.4,4,18.92,18.92,0,0,0-.5,3.8,29.66,29.66,0,0,1-.8,5.2,13,13,0,0,1-1.9,4.5,7.11,7.11,0,0,1-4.1,2.7,8.72,8.72,0,0,1-3.9.2,5.55,5.55,0,0,1-3-1.8,10.38,10.38,0,0,1-1.9-3.8,9.1,9.1,0,0,1-.1-4.9,12.43,12.43,0,0,1,2.3-4.4c.6-.7,1.3-1.5,2-2.2a2.79,2.79,0,0,0,.1-4.1h0a2.46,2.46,0,0,0-3.3-.2,25,25,0,0,0-3.5,3.8,16.09,16.09,0,0,0-2.7,6.3,14.31,14.31,0,0,0,.3,6.8,15.81,15.81,0,0,0,3.4,6.6,9.9,9.9,0,0,0,5.4,3.1,14.33,14.33,0,0,0,6.8-.2,11,11,0,0,0,4.7-2.4,11.72,11.72,0,0,0,2.8-3.6,15.57,15.57,0,0,0,1.5-4.1,31,31,0,0,0,.6-3.9c.2-1.9.4-3.6.7-5.3a12.84,12.84,0,0,1,1.6-4.3,5.66,5.66,0,0,1,3.4-2.4,6.24,6.24,0,0,1,3.3-.1,4.71,4.71,0,0,1,2.5,1.7,10.34,10.34,0,0,1,1.7,3.8,7.46,7.46,0,0,1,0,4.2,10,10,0,0,1-1.9,3.5C119.24,135.83,118.94,136,118.74,136.33Z" fill="#4d4d4d"/><path d="M242.44,23.23a8,8,0,0,1,7.2,8.7l-21,214.2a8,8,0,0,1-8.8,7.2l-30.1-2.9-19.1-1.9-19.1-1.9-68.3-6.7a8,8,0,0,1-7.2-8.7L97,17a8,8,0,0,1,8.7-7.2Z" fill="#fff"/><path d="M220.74,255.43h-1l-30.1-2.9a2,2,0,0,1,.4-4l30.1,2.9a6.11,6.11,0,0,0,6.6-5.4l21-214.2a5.79,5.79,0,0,0-1.3-4.4,6.43,6.43,0,0,0-4-2.2l-136.5-13.4a6.11,6.11,0,0,0-6.6,5.4l-2,20.8a2,2,0,1,1-4-.4l2-20.8a10,10,0,0,1,10.9-9l136.5,13.4a10,10,0,0,1,6.8,3.6,9.8,9.8,0,0,1,2.2,7.3l-21,214.2A10.23,10.23,0,0,1,220.74,255.43Zm-69.1-6.8h-.2l-68.3-6.7a10,10,0,0,1-6.8-3.6,9.8,9.8,0,0,1-2.2-7.3l16.1-164.6a2,2,0,0,1,4,.4l-16.1,164.7a5.79,5.79,0,0,0,1.3,4.4,6.41,6.41,0,0,0,4.1,2.2l68.3,6.7a2,2,0,0,1,1.8,2.2A2,2,0,0,1,151.64,248.63Z" fill="#4d4d4d"/><path d="M244.64,36l-20.1,205.2a8,8,0,0,1-8.7,7.2l-127.4-12.5a8,8,0,0,1-7.2-8.7L101.34,22a8,8,0,0,1,8.7-7.2l127.4,12.5A8,8,0,0,1,244.64,36Z" fill="#65897a"/><path d="M230.34,49.73a11.05,11.05,0,0,1-10.2-11.9l-95.8-9.4a11.12,11.12,0,0,1-12.4,9.7l-17.2,175.3a11.27,11.27,0,0,1,10.3,11.9l95.8,9.4a11.12,11.12,0,0,1,12.4-9.7Z" fill="#fff"/><path d="M200.84,236.73h-.2l-95.8-9.4a2.67,2.67,0,0,1-1.4-.7,1.91,1.91,0,0,1-.4-1.5,8.81,8.81,0,0,0-2.1-6.5,9.76,9.76,0,0,0-6.4-3.3,2.67,2.67,0,0,1-1.4-.7,1.91,1.91,0,0,1-.4-1.5l8.6-87.6a2,2,0,0,1,4,.4l-8.4,85.8a13.83,13.83,0,0,1,7,4.3,13.46,13.46,0,0,1,3.1,7.5l92.2,9a13.2,13.2,0,0,1,12.2-9.6l.5-4.7a2,2,0,0,1,4,.4l-.6,6.5a2.67,2.67,0,0,1-.7,1.4,1.6,1.6,0,0,1-1.5.4,9.23,9.23,0,0,0-10.2,7.9A2.23,2.23,0,0,1,200.84,236.73Zm18.1-68.6h-.2a2,2,0,0,1-1.8-2.2l11.2-114.5a13.83,13.83,0,0,1-7-4.3,13.46,13.46,0,0,1-3.1-7.5l-92.2-9a13.2,13.2,0,0,1-12.2,9.6l-4.1,42a2,2,0,1,1-4-.4l4.3-43.8a2,2,0,0,1,2.2-1.8,9.23,9.23,0,0,0,10.2-7.9,2.67,2.67,0,0,1,.7-1.4,1.91,1.91,0,0,1,1.5-.4l95.8,9.4a2.67,2.67,0,0,1,1.4.7,1.91,1.91,0,0,1,.4,1.5,8.81,8.81,0,0,0,2.1,6.5,9.76,9.76,0,0,0,6.4,3.3,2.67,2.67,0,0,1,1.4.7,1.91,1.91,0,0,1,.4,1.5l-11.4,116.4A2,2,0,0,1,218.94,168.13Z" fill="#90ab6d"/><path d="M226.24,52.73a10.54,10.54,0,0,1-9.5-11.5l-89.1-8.7a10.46,10.46,0,0,1-11.5,9.4l-16.5,168.6a10.54,10.54,0,0,1,9.5,11.5l89.1,8.7a10.46,10.46,0,0,1,11.5-9.4Z" fill="#90ab6d"/><circle cx="163.04" cy="131.93" r="44" fill="#fff"/><circle cx="162.94" cy="131.93" r="40.2" transform="translate(-38.08 72.4) rotate(-22.5)" fill="#e9da8c"/><path d="M167.74,102.83a2.28,2.28,0,0,0-2.6,1.9l-.7,4.8a2.28,2.28,0,0,0,1.9,2.6h0a2.28,2.28,0,0,0,2.6-1.9l.7-4.8a2.21,2.21,0,0,0-1.9-2.6Zm-7,47.8a2.28,2.28,0,0,0-2.6,1.9l-.8,5.4a2.28,2.28,0,0,0,1.9,2.6h0a2.28,2.28,0,0,0,2.6-1.9l.8-5.4a2.19,2.19,0,0,0-1.9-2.6Zm12-30.5a3,3,0,0,0,3.9,1.5h0a2.37,2.37,0,0,0,1.3-3,17.39,17.39,0,0,0-1.4-2.7,15.51,15.51,0,0,0-3.9-4.2,12.4,12.4,0,0,0-6-2.3,14.61,14.61,0,0,0-6.6.5,11.19,11.19,0,0,0-5,3.1,8.7,8.7,0,0,0-2.4,5.1,11,11,0,0,0,.3,5.2,12.88,12.88,0,0,0,2.2,4,17.5,17.5,0,0,0,3.2,2.9,32.36,32.36,0,0,0,3.3,2,32.34,32.34,0,0,1,4.4,2.7,12.52,12.52,0,0,1,3.4,3.5,7,7,0,0,1,.9,4.8,8.67,8.67,0,0,1-1.4,3.7,6,6,0,0,1-2.8,2.1,8.15,8.15,0,0,1-4.2.2,10,10,0,0,1-4.6-1.9,12.17,12.17,0,0,1-3.1-3.9q-.6-1.2-1.2-2.7a2.85,2.85,0,0,0-3.7-1.7h0a2.48,2.48,0,0,0-1.5,3,18.2,18.2,0,0,0,2.1,4.7,17.29,17.29,0,0,0,4.7,5,14.27,14.27,0,0,0,6.3,2.4,14.72,14.72,0,0,0,7.4-.5,11.53,11.53,0,0,0,5-3.7,14.67,14.67,0,0,0,2.5-6.3,11.56,11.56,0,0,0-.3-5.3,10.35,10.35,0,0,0-2.2-4,15,15,0,0,0-3.2-3,34.89,34.89,0,0,0-3.3-2.1c-1.6-.9-3.1-1.8-4.6-2.8a12.63,12.63,0,0,1-3.3-3.2,5.24,5.24,0,0,1-.8-4.1,6.72,6.72,0,0,1,1.2-3.1,5.39,5.39,0,0,1,2.6-1.7,11.42,11.42,0,0,1,4.2-.1,7,7,0,0,1,3.9,1.7,8.34,8.34,0,0,1,2.4,3.1A1.8,1.8,0,0,0,172.74,120.13Z" fill="#4d4d4d"/><path d="M5,155.13a14,14,0,0,1,14-14H248a14,14,0,0,1,14,14v169a14,14,0,0,1-14,14H19a14,14,0,0,1-14-14Z" fill="#d85945"/><path d="M248,340.13H19a16,16,0,0,1-16-16v-169a16,16,0,0,1,16-16H248a16,16,0,0,1,16,16v169A16,16,0,0,1,248,340.13Zm-229-197a12,12,0,0,0-12,12v169a12,12,0,0,0,12,12H248a12,12,0,0,0,12-12v-169a12,12,0,0,0-12-12Z" fill="#4d4d4d"/><path d="M247,153.13H76a2,2,0,0,1,0-4H247a2,2,0,0,1,0,4Zm-199.5,0H19a2,2,0,1,1,0-4h28.5a2,2,0,0,1,0,4Z" fill="#4d4d4d"/><path d="M245,330.13H188a2,2,0,1,1,0-4h57a2,2,0,0,1,0,4Zm-114,0H17a2,2,0,0,1,0-4H131a2,2,0,0,1,0,4Z" fill="#4d4d4d"/><path d="M189,239.63a27.48,27.48,0,0,1,27.5-27.5H262a14,14,0,0,1,14,14v27a14,14,0,0,1-14,14h-45.5a27.48,27.48,0,0,1-27.5-27.5Z" fill="#e06f5d"/><path d="M262,269.13h-45.5a29.5,29.5,0,1,1,0-59H262a16,16,0,0,1,16,16v27A16,16,0,0,1,262,269.13Zm-45.5-55a25.5,25.5,0,1,0,0,51H262a12,12,0,0,0,12-12v-27a12,12,0,0,0-12-12Z" fill="#4d4d4d"/><circle cx="216.04" cy="240.13" r="10" fill="#4d4d4d"/></g></g></g></svg>